<?xml version="1.0" encoding="UTF-8"?>
<svg xmlns="http://www.w3.org/2000/svg" xmlns:xlink="http://www.w3.org/1999/xlink" viewBox="0 0 256 256" width="256px" height="256px">
<g id="surface176168130">
<path style=" stroke:none;fill-rule:nonzero;fill:rgb(0%,0%,0%);fill-opacity:1;" d="M 140 143 C 140.003906 146.3125 142.6875 148.996094 146 149 C 152.039062 148.988281 157.140625 153.472656 157.90625 159.464844 C 158.667969 165.453125 154.847656 171.074219 149 172.574219 L 149 179 C 149 180.65625 147.65625 182 146 182 C 144.34375 182 143 180.65625 143 179 L 143 172.574219 C 137.714844 171.214844 134.015625 166.457031 134 161 C 134 159.34375 135.34375 158 137 158 C 138.65625 158 140 159.34375 140 161 C 140 164.3125 142.6875 167 146 167 C 149.3125 167 152 164.3125 152 161 C 152 157.6875 149.3125 155 146 155 C 139.960938 155.011719 134.859375 150.527344 134.09375 144.535156 C 133.332031 138.546875 137.152344 132.925781 143 131.425781 L 143 125 C 143 123.34375 144.34375 122 146 122 C 147.65625 122 149 123.34375 149 125 L 149 131.425781 C 154.285156 132.785156 157.984375 137.542969 158 143 C 158 144.65625 156.65625 146 155 146 C 153.34375 146 152 144.65625 152 143 C 152 139.6875 149.3125 137 146 137 C 142.6875 137 140 139.6875 140 143 Z M 119 140 L 89 140 C 87.34375 140 86 141.34375 86 143 C 86 144.65625 87.34375 146 89 146 L 119 146 C 120.65625 146 122 144.65625 122 143 C 122 141.34375 120.65625 140 119 140 Z M 212 59 L 212 119 C 212 119.796875 211.683594 120.558594 211.121094 121.121094 C 210.558594 121.683594 209.796875 122 209 122 L 176 122 L 176 200 C 176 200.796875 175.683594 201.558594 175.121094 202.121094 L 160.121094 217.121094 C 159.558594 217.683594 158.796875 218 158 218 C 157.203125 218 156.441406 217.683594 155.878906 217.121094 L 146 207.242188 L 136.121094 217.121094 C 135.558594 217.683594 134.796875 218 134 218 C 133.203125 218 132.441406 217.683594 131.878906 217.121094 L 122 207.242188 L 112.121094 217.121094 C 111.558594 217.683594 110.796875 218 110 218 C 109.203125 218 108.441406 217.683594 107.878906 217.121094 L 98 207.242188 L 88.121094 217.121094 C 87.558594 217.683594 86.796875 218 86 218 C 85.203125 218 84.441406 217.683594 83.878906 217.121094 L 74 207.242188 L 64.121094 217.121094 C 63.558594 217.683594 62.796875 218 62 218 C 61.203125 218 60.441406 217.683594 59.878906 217.121094 L 44.878906 202.121094 C 44.316406 201.558594 44 200.796875 44 200 L 44 59 C 44.011719 47.40625 53.40625 38.011719 65 38 L 191.589844 38 C 191.660156 38 191.71875 38.035156 191.789062 38.039062 C 203.058594 38.46875 211.980469 47.71875 212 59 Z M 170 59 C 170 53.347656 172.285156 47.9375 176.335938 44 L 65 44 C 56.71875 44.007812 50.007812 50.71875 50 59 L 50 198.757812 L 62 210.757812 L 71.878906 200.878906 C 72.441406 200.316406 73.203125 200 74 200 C 74.796875 200 75.558594 200.316406 76.121094 200.878906 L 86 210.757812 L 95.878906 200.878906 C 96.441406 200.316406 97.203125 200 98 200 C 98.796875 200 99.558594 200.316406 100.121094 200.878906 L 110 210.757812 L 119.878906 200.878906 C 120.441406 200.316406 121.203125 200 122 200 C 122.796875 200 123.558594 200.316406 124.121094 200.878906 L 134 210.757812 L 143.878906 200.878906 C 144.441406 200.316406 145.203125 200 146 200 C 146.796875 200 147.558594 200.316406 148.121094 200.878906 L 158 210.757812 L 170 198.757812 Z M 206 59 C 206 50.714844 199.285156 44 191 44 C 182.714844 44 176 50.714844 176 59 L 176 116 L 206 116 Z M 77 139.957031 L 65 139.957031 C 63.34375 139.957031 62 141.300781 62 142.957031 C 62 144.613281 63.34375 145.957031 65 145.957031 L 77 145.957031 C 78.65625 145.957031 80 144.613281 80 142.957031 C 80 141.300781 78.65625 139.957031 77 139.957031 Z M 119 158 L 89 158 C 87.34375 158 86 159.34375 86 161 C 86 162.65625 87.34375 164 89 164 L 119 164 C 120.65625 164 122 162.65625 122 161 C 122 159.34375 120.65625 158 119 158 Z M 77 157.957031 L 65 157.957031 C 63.34375 157.957031 62 159.300781 62 160.957031 C 62 162.613281 63.34375 163.957031 65 163.957031 L 77 163.957031 C 78.65625 163.957031 80 162.613281 80 160.957031 C 80 159.300781 78.65625 157.957031 77 157.957031 Z M 119 176 L 89 176 C 87.34375 176 86 177.34375 86 179 C 86 180.65625 87.34375 182 89 182 L 119 182 C 120.65625 182 122 180.65625 122 179 C 122 177.34375 120.65625 176 119 176 Z M 77 175.957031 L 65 175.957031 C 63.34375 175.957031 62 177.300781 62 178.957031 C 62 180.613281 63.34375 181.957031 65 181.957031 L 77 181.957031 C 78.65625 181.957031 80 180.613281 80 178.957031 C 80 177.300781 78.65625 175.957031 77 175.957031 Z M 119 122 L 89 122 C 87.34375 122 86 123.34375 86 125 C 86 126.65625 87.34375 128 89 128 L 119 128 C 120.65625 128 122 126.65625 122 125 C 122 123.34375 120.65625 122 119 122 Z M 77 121.957031 L 65 121.957031 C 63.34375 121.957031 62 123.300781 62 124.957031 C 62 126.613281 63.34375 127.957031 65 127.957031 L 77 127.957031 C 78.65625 127.957031 80 126.613281 80 124.957031 C 80 123.300781 78.65625 121.957031 77 121.957031 Z M 155 104 L 89 104 C 87.34375 104 86 105.34375 86 107 C 86 108.65625 87.34375 110 89 110 L 155 110 C 156.65625 110 158 108.65625 158 107 C 158 105.34375 156.65625 104 155 104 Z M 77 103.957031 L 65 103.957031 C 63.34375 103.957031 62 105.300781 62 106.957031 C 62 108.613281 63.34375 109.957031 65 109.957031 L 77 109.957031 C 78.65625 109.957031 80 108.613281 80 106.957031 C 80 105.300781 78.65625 103.957031 77 103.957031 Z M 155 86 L 89 86 C 87.34375 86 86 87.34375 86 89 C 86 90.65625 87.34375 92 89 92 L 155 92 C 156.65625 92 158 90.65625 158 89 C 158 87.34375 156.65625 86 155 86 Z M 77 85.957031 L 65 85.957031 C 63.34375 85.957031 62 87.300781 62 88.957031 C 62 90.613281 63.34375 91.957031 65 91.957031 L 77 91.957031 C 78.65625 91.957031 80 90.613281 80 88.957031 C 80 87.300781 78.65625 85.957031 77 85.957031 Z M 146 65 C 146 64.203125 145.683594 63.441406 145.121094 62.878906 C 144.558594 62.316406 143.796875 62 143 62 L 77 62 C 75.34375 62 74 63.34375 74 65 C 74 66.65625 75.34375 68 77 68 L 143 68 C 143.796875 68 144.558594 67.683594 145.121094 67.121094 C 145.683594 66.558594 146 65.796875 146 65 Z M 146 65 "/>
</g>
</svg>
