<?xml version="1.0" encoding="UTF-8"?>
<svg xmlns="http://www.w3.org/2000/svg" xmlns:xlink="http://www.w3.org/1999/xlink" viewBox="0 0 50 50" width="50px" height="50px">
<g id="surface33709880">
<path style=" stroke:none;fill-rule:nonzero;fill:rgb(80.000001%,80.000001%,80.000001%);fill-opacity:1;" d="M 25 50 C 11.191406 50 0 38.808594 0 25 C 0 11.191406 11.191406 0 25 0 C 38.808594 0 50 11.191406 50 25 C 50 38.808594 38.808594 50 25 50 Z M 25 50 "/>
<path style=" stroke:none;fill-rule:nonzero;fill:rgb(0%,0%,0%);fill-opacity:1;" d="M 35.476562 6.007812 C 35.308594 6.023438 35.148438 6.101562 35.027344 6.21875 L 28.222656 13.019531 C 27.921875 13.320312 27.921875 13.804688 28.222656 14.105469 C 28.523438 14.410156 29.007812 14.410156 29.3125 14.105469 L 36.113281 7.304688 C 36.359375 7.078125 36.421875 6.71875 36.273438 6.417969 C 36.128906 6.117188 35.804688 5.953125 35.476562 6.007812 Z M 27.183594 8.25 C 27.152344 8.253906 27.121094 8.265625 27.089844 8.273438 C 26.84375 8.328125 26.636719 8.507812 26.546875 8.746094 L 25.035156 12.523438 C 24.878906 12.917969 25.066406 13.359375 25.460938 13.515625 C 25.855469 13.671875 26.296875 13.484375 26.453125 13.089844 L 27.964844 9.3125 C 28.078125 9.066406 28.046875 8.773438 27.882812 8.554688 C 27.726562 8.332031 27.457031 8.21875 27.183594 8.25 Z M 8.359375 16.585938 C 7.117188 16.585938 6.09375 17.613281 6.09375 18.855469 L 6.023438 24.804688 C 6.023438 24.816406 6.023438 24.820312 6.023438 24.828125 C 6.023438 25.9375 6.796875 26.921875 7.914062 27.144531 C 7.925781 27.152344 7.945312 27.164062 7.960938 27.167969 C 8.796875 27.273438 9.679688 26.96875 10.179688 26.246094 C 10.1875 26.238281 10.199219 26.230469 10.203125 26.222656 C 10.476562 25.847656 10.757812 25.65625 11.148438 25.65625 C 11.765625 25.65625 12.3125 25.730469 12.941406 25.867188 C 12.953125 25.871094 12.957031 25.867188 12.96875 25.867188 L 13.839844 26.082031 C 13.847656 26.082031 13.855469 26.082031 13.863281 26.082031 C 16.878906 26.785156 19.433594 28.90625 20.925781 31.679688 C 22.722656 34.941406 26.234375 37.15625 30.300781 36.992188 C 34.921875 36.847656 38.875 33.425781 39.867188 29.035156 C 40.273438 29.285156 40.730469 29.433594 41.238281 29.433594 C 42.691406 29.433594 43.882812 28.242188 43.882812 26.789062 C 43.882812 25.335938 42.691406 24.144531 41.238281 24.144531 C 40.722656 24.144531 40.25 24.289062 39.84375 24.546875 C 38.824219 20.011719 34.773438 16.585938 29.902344 16.585938 L 25.746094 16.585938 C 25.472656 16.585938 25.21875 16.730469 25.082031 16.964844 L 23.476562 19.777344 L 23.476562 17.34375 C 23.476562 16.925781 23.136719 16.585938 22.722656 16.585938 Z M 8.359375 18.097656 L 21.964844 18.097656 L 21.964844 22.632812 C 21.960938 22.980469 22.191406 23.285156 22.527344 23.375 C 22.863281 23.464844 23.214844 23.316406 23.382812 23.011719 L 26.191406 18.097656 L 29.902344 18.097656 C 34.726562 18.097656 38.605469 22.003906 38.59375 26.789062 C 38.59375 26.910156 38.597656 27.027344 38.59375 27.144531 C 38.453125 31.570312 34.679688 35.34375 30.253906 35.480469 C 26.765625 35.621094 23.78125 33.753906 22.25 30.96875 C 20.570312 27.855469 17.695312 25.433594 14.21875 24.617188 L 14.195312 24.617188 L 13.296875 24.40625 C 13.296875 24.394531 13.296875 24.390625 13.296875 24.382812 C 12.578125 24.222656 11.882812 24.144531 11.148438 24.144531 C 10.96875 24.144531 10.792969 24.15625 10.628906 24.191406 L 10.628906 21.121094 C 10.632812 20.886719 10.53125 20.667969 10.351562 20.519531 C 10.175781 20.371094 9.933594 20.316406 9.707031 20.367188 C 9.355469 20.445312 9.109375 20.761719 9.117188 21.121094 L 9.117188 25.183594 C 9.0625 25.25 9 25.304688 8.953125 25.375 C 8.953125 25.382812 8.953125 25.386719 8.953125 25.398438 C 8.84375 25.558594 8.507812 25.699219 8.148438 25.65625 C 7.78125 25.554688 7.535156 25.214844 7.535156 24.828125 L 7.605469 18.855469 C 7.605469 18.433594 7.941406 18.097656 8.359375 18.097656 Z M 41.238281 25.65625 C 41.871094 25.65625 42.371094 26.15625 42.371094 26.789062 C 42.371094 27.425781 41.871094 27.925781 41.238281 27.925781 C 40.601562 27.925781 40.105469 27.425781 40.105469 26.789062 C 40.105469 26.15625 40.601562 25.65625 41.238281 25.65625 Z M 41.238281 25.65625 "/>
</g>
</svg>
