<svg fill="#000000" xmlns="http://www.w3.org/2000/svg"  viewBox="0 0 50 50" width="250px" height="250px"><path d="M 24.982422 1.9824219 C 12.303546 1.9824219 1.9824219 12.303546 1.9824219 24.982422 C 1.9824219 37.661298 12.303546 47.982422 24.982422 47.982422 C 34.562196 47.982422 42.787616 42.100566 46.236328 33.746094 A 2.0002 2.0002 0 1 0 42.539062 32.220703 C 39.691775 39.118231 32.926648 43.982422 24.982422 43.982422 C 14.465298 43.982422 5.9824219 35.499546 5.9824219 24.982422 C 5.9824219 14.465298 14.465298 5.9824219 24.982422 5.9824219 C 32.927741 5.9824219 39.691717 10.848427 42.539062 17.746094 A 2.0002 2.0002 0 1 0 46.236328 16.220703 C 42.787673 7.8663695 34.563102 1.9824219 24.982422 1.9824219 z M 22.978516 15.962891 A 2.0002 2.0002 0 0 0 21.603516 16.568359 L 14.603516 23.568359 A 2.0002 2.0002 0 0 0 14.603516 26.396484 L 21.603516 33.396484 A 2.0002 2.0002 0 1 0 24.431641 30.568359 L 20.845703 26.982422 L 46.017578 26.982422 A 2.0002 2.0002 0 1 0 46.017578 22.982422 L 20.845703 22.982422 L 24.431641 19.396484 A 2.0002 2.0002 0 0 0 22.978516 15.962891 z"/></svg>