<?xml version="1.0" encoding="UTF-8"?>
<svg xmlns="http://www.w3.org/2000/svg" xmlns:xlink="http://www.w3.org/1999/xlink" viewBox="0 0 64 64" width="64px" height="64px">
<g id="surface33693233">
<path style=" stroke:none;fill-rule:nonzero;fill:rgb(80.000001%,80.000001%,80.000001%);fill-opacity:1;" d="M 6 12 C 4.898438 12 4 12.898438 4 14 L 4 50 C 4 51.101562 4.898438 52 6 52 L 58 52 C 59.101562 52 60 51.101562 60 50 L 60 14 C 60 12.898438 59.101562 12 58 12 Z M 32 18 L 54 18 L 54 38 L 50 38 L 50 35 C 50 32.238281 47.761719 30 45 30 L 41 30 C 38.238281 30 36 32.238281 36 35 L 36 38 L 32 38 Z M 43 30 C 44.101562 30 45.101562 29.550781 45.828125 28.828125 C 46.550781 28.101562 47 27.101562 47 26 C 47 24.898438 46.550781 23.898438 45.828125 23.171875 C 45.101562 22.449219 44.101562 22 43 22 C 41.898438 22 40.898438 22.449219 40.171875 23.171875 C 39.449219 23.898438 39 24.898438 39 26 C 39 28.210938 40.789062 30 43 30 Z M 13 20 C 13.550781 20 14.050781 20.21875 14.410156 20.589844 C 14.78125 20.949219 15 21.449219 15 22 L 15 23 L 21 23 L 21 22 C 21 20.898438 21.898438 20 23 20 C 23.550781 20 24.050781 20.21875 24.410156 20.589844 C 24.78125 20.949219 25 21.449219 25 22 L 25 23 C 25 22.449219 25.449219 22 26 22 C 26.550781 22 27 22.449219 27 23 L 27 25 C 27 25.550781 26.550781 26 26 26 C 25.449219 26 25 25.550781 25 25 L 25 26 C 25 27.101562 24.101562 28 23 28 C 21.898438 28 21 27.101562 21 26 L 21 25 L 15 25 L 15 26 C 15 27.101562 14.101562 28 13 28 C 11.898438 28 11 27.101562 11 26 L 11 25 C 11 25.550781 10.550781 26 10 26 C 9.449219 26 9 25.550781 9 25 L 9 23 C 9 22.449219 9.449219 22 10 22 C 10.550781 22 11 22.449219 11 23 L 11 22 C 11 20.898438 11.898438 20 13 20 Z M 10 34 L 26 34 L 26 38 L 10 38 Z M 11 41 L 25 41 C 25.550781 41 26 41.449219 26 42 C 26 42.550781 25.550781 43 25 43 L 11 43 C 10.449219 43 10 42.550781 10 42 C 10 41.449219 10.449219 41 11 41 Z M 35 41 L 51 41 C 51.550781 41 52 41.449219 52 42 C 52 42.550781 51.550781 43 51 43 L 35 43 C 34.449219 43 34 42.550781 34 42 C 34 41.449219 34.449219 41 35 41 Z M 11 45 L 20 45 C 20.550781 45 21 45.449219 21 46 C 21 46.550781 20.550781 47 20 47 L 11 47 C 10.449219 47 10 46.550781 10 46 C 10 45.449219 10.449219 45 11 45 Z M 38 45 L 48 45 C 48.550781 45 49 45.449219 49 46 C 49 46.550781 48.550781 47 48 47 L 38 47 C 37.449219 47 37 46.550781 37 46 C 37 45.449219 37.449219 45 38 45 Z M 38 45 "/>
</g>
</svg>
