<?xml version="1.0" encoding="UTF-8"?>
<svg xmlns="http://www.w3.org/2000/svg" xmlns:xlink="http://www.w3.org/1999/xlink" viewBox="0 0 256 256" width="256px" height="256px">
<g id="surface176682150">
<path style=" stroke:none;fill-rule:nonzero;fill:rgb(0%,0%,0%);fill-opacity:1;" d="M 37 54.5 C 31.210938 54.5 26.5 59.210938 26.5 65 L 26.5 191 C 26.5 196.789062 31.210938 201.5 37 201.5 L 219 201.5 C 224.789062 201.5 229.5 196.789062 229.5 191 L 229.5 65 C 229.5 59.210938 224.789062 54.5 219 54.5 Z M 37 61.5 L 219 61.5 C 220.929688 61.5 222.5 63.070312 222.5 65 L 222.5 191 C 222.5 192.929688 220.929688 194.5 219 194.5 L 37 194.5 C 35.070312 194.5 33.5 192.929688 33.5 191 L 33.5 65 C 33.5 63.070312 35.070312 61.5 37 61.5 Z M 128 75.5 C 126.066406 75.5 124.5 77.066406 124.5 79 L 124.5 149 C 124.5 150.933594 126.066406 152.5 128 152.5 L 205 152.5 C 206.933594 152.5 208.5 150.933594 208.5 149 L 208.5 79 C 208.5 77.066406 206.933594 75.5 205 75.5 Z M 61.5 82.5 C 55.710938 82.5 51 87.210938 51 93 C 49.066406 93 47.5 94.566406 47.5 96.5 L 47.5 103.5 C 47.5 105.433594 49.066406 107 51 107 C 51 112.789062 55.710938 117.5 61.5 117.5 C 67.289062 117.5 72 112.789062 72 107 L 72 103.5 L 86 103.5 L 86 107 C 86 112.789062 90.710938 117.5 96.5 117.5 C 102.289062 117.5 107 112.789062 107 107 C 108.933594 107 110.5 105.433594 110.5 103.5 L 110.5 96.5 C 110.5 94.566406 108.933594 93 107 93 C 107 87.210938 102.289062 82.5 96.5 82.5 C 90.710938 82.5 86 87.210938 86 93 L 86 96.5 L 72 96.5 L 72 93 C 72 87.210938 67.289062 82.5 61.5 82.5 Z M 131.5 82.5 L 201.5 82.5 L 201.5 145.5 L 194.5 145.5 L 194.5 138.5 C 194.5 129.058594 188.234375 121.058594 179.644531 118.421875 C 182.320312 115.347656 184 111.382812 184 107 C 184 97.351562 176.148438 89.5 166.5 89.5 C 156.851562 89.5 149 97.351562 149 107 C 149 111.382812 150.679688 115.347656 153.355469 118.421875 C 144.765625 121.058594 138.5 129.058594 138.5 138.5 L 138.5 145.5 L 131.5 145.5 Z M 61.5 89.5 C 63.429688 89.5 65 91.070312 65 93 L 65 107 C 65 108.929688 63.429688 110.5 61.5 110.5 C 59.570312 110.5 58 108.929688 58 107 L 58 93 C 58 91.070312 59.570312 89.5 61.5 89.5 Z M 96.5 89.5 C 98.429688 89.5 100 91.070312 100 93 L 100 107 C 100 108.929688 98.429688 110.5 96.5 110.5 C 94.570312 110.5 93 108.929688 93 107 L 93 93 C 93 91.070312 94.570312 89.5 96.5 89.5 Z M 166.5 96.5 C 172.289062 96.5 177 101.210938 177 107 C 177 112.789062 172.289062 117.5 166.5 117.5 C 160.710938 117.5 156 112.789062 156 107 C 156 101.210938 160.710938 96.5 166.5 96.5 Z M 159.5 124.5 L 173.5 124.5 C 181.21875 124.5 187.5 130.78125 187.5 138.5 L 187.5 145.5 L 145.5 145.5 L 145.5 138.5 C 145.5 130.78125 151.78125 124.5 159.5 124.5 Z M 51 131.5 C 49.066406 131.5 47.5 133.066406 47.5 135 L 47.5 149 C 47.5 150.933594 49.066406 152.5 51 152.5 L 107 152.5 C 108.933594 152.5 110.5 150.933594 110.5 149 L 110.5 135 C 110.5 133.066406 108.933594 131.5 107 131.5 Z M 54.5 138.5 L 103.5 138.5 L 103.5 145.5 L 54.5 145.5 Z M 51 159.5 C 49.066406 159.5 47.5 161.066406 47.5 163 C 47.5 164.933594 49.066406 166.5 51 166.5 L 107 166.5 C 108.933594 166.5 110.5 164.933594 110.5 163 C 110.5 161.066406 108.933594 159.5 107 159.5 Z M 138.5 159.5 C 136.566406 159.5 135 161.066406 135 163 C 135 164.933594 136.566406 166.5 138.5 166.5 L 194.5 166.5 C 196.433594 166.5 198 164.933594 198 163 C 198 161.066406 196.433594 159.5 194.5 159.5 Z M 51 173.5 C 49.066406 173.5 47.5 175.066406 47.5 177 C 47.5 178.933594 49.066406 180.5 51 180.5 L 86 180.5 C 87.933594 180.5 89.5 178.933594 89.5 177 C 89.5 175.066406 87.933594 173.5 86 173.5 Z M 149 173.5 C 147.066406 173.5 145.5 175.066406 145.5 177 C 145.5 178.933594 147.066406 180.5 149 180.5 L 184 180.5 C 185.933594 180.5 187.5 178.933594 187.5 177 C 187.5 175.066406 185.933594 173.5 184 173.5 Z M 149 173.5 "/>
</g>
</svg>
