<?xml version="1.0" encoding="UTF-8"?>
<svg xmlns="http://www.w3.org/2000/svg" xmlns:xlink="http://www.w3.org/1999/xlink" viewBox="0 0 50 50" width="50px" height="50px">
<g id="surface339129918">
<path style=" stroke:none;fill-rule:nonzero;fill:rgb(80.000001%,80.000001%,80.000001%);fill-opacity:1;" d="M 15 2 L 15 10.972656 C 11.921875 11.601562 9.199219 12.511719 7 13.652344 L 7 11 C 8.328125 10.328125 9.671875 9.671875 11 9 L 5 6 L 5 14.847656 C 2.46875 16.589844 1 18.699219 1 21 L 1 21.5 C 1 22.511719 1.351562 23.488281 2 24.429688 C 2.269531 24.828125 2.609375 25.230469 3 25.621094 C 3.878906 26.488281 5.039062 27.308594 6.410156 28.039062 C 6.609375 28.148438 6.808594 28.257812 7.019531 28.359375 C 7.371094 28.550781 7.738281 28.722656 8.121094 28.882812 C 8.339844 28.980469 8.570312 29.070312 8.800781 29.171875 C 9.019531 29.261719 9.242188 29.339844 9.460938 29.429688 C 12.761719 30.710938 16.859375 31.582031 21.402344 31.882812 C 21.921875 31.910156 22.429688 31.941406 22.960938 31.960938 C 23.082031 31.972656 23.210938 31.972656 23.339844 31.972656 C 23.550781 31.980469 23.761719 31.992188 23.972656 31.992188 C 24.3125 32 24.648438 32 25 32 C 25.53125 32 26.070312 31.992188 26.589844 31.972656 C 26.871094 31.972656 27.140625 31.960938 27.410156 31.941406 C 27.832031 31.929688 28.25 31.902344 28.660156 31.882812 C 29.929688 31.789062 31.167969 31.652344 32.367188 31.480469 C 35.699219 31.011719 38.699219 30.21875 41.199219 29.171875 C 41.429688 29.070312 41.660156 28.980469 41.878906 28.882812 C 42.222656 28.742188 42.550781 28.578125 42.859375 28.421875 C 46.660156 26.558594 49 24.121094 49 21.5 L 49 21 C 49 18.699219 47.53125 16.589844 45 14.851562 L 45 11 C 46.328125 10.328125 47.671875 9.671875 49 9 L 43 6 L 43 13.652344 C 40.800781 12.511719 38.078125 11.601562 35 10.972656 L 35 7 C 36.328125 6.328125 37.671875 5.671875 39 5 L 33 2 L 33 10.609375 C 30.511719 10.210938 27.820312 10 25 10 C 22.179688 10 19.488281 10.210938 17 10.609375 L 17 7 C 18.328125 6.328125 19.671875 5.671875 21 5 Z M 17.261719 12.597656 L 18.269531 15.640625 C 20.417969 15.21875 22.679688 15 25 15 C 27.320312 15 29.582031 15.21875 31.730469 15.640625 L 32.738281 12.597656 C 32.921875 12.628906 33.089844 12.660156 33.269531 12.6875 C 33.660156 12.75 34.050781 12.820312 34.429688 12.898438 L 34.4375 12.898438 L 34.738281 12.960938 L 33.699219 16.078125 C 36.378906 16.769531 38.839844 17.769531 40.929688 19.027344 L 42.910156 15.847656 C 43.53125 16.199219 44.089844 16.582031 44.578125 16.96875 L 42.597656 20.140625 C 43.980469 21.171875 45.140625 22.328125 46.027344 23.589844 C 45.648438 24.089844 45.167969 24.570312 44.589844 25.019531 C 43.820312 23.847656 42.789062 22.78125 41.539062 21.828125 L 40.339844 23.738281 C 41.417969 24.511719 42.199219 25.378906 42.628906 26.308594 C 42.070312 26.609375 41.46875 26.910156 40.820312 27.179688 C 39.742188 24.609375 33.621094 22 25 22 C 16.378906 22 10.257812 24.609375 9.179688 27.179688 C 8.53125 26.910156 7.929688 26.609375 7.371094 26.308594 C 7.800781 25.378906 8.582031 24.511719 9.660156 23.738281 L 8.460938 21.828125 C 7.210938 22.78125 6.179688 23.847656 5.410156 25.019531 C 4.832031 24.570312 4.351562 24.089844 3.972656 23.589844 C 4.859375 22.328125 6.019531 21.171875 7.402344 20.140625 L 5.421875 16.96875 C 5.910156 16.582031 6.46875 16.199219 7.089844 15.847656 L 9.070312 19.027344 C 11.160156 17.769531 13.621094 16.769531 16.300781 16.078125 L 15.261719 12.960938 L 15.5625 12.898438 L 15.570312 12.898438 C 15.949219 12.820312 16.339844 12.75 16.730469 12.6875 C 16.910156 12.660156 17.078125 12.628906 17.261719 12.597656 Z M 25 17 C 22.898438 17 20.851562 17.191406 18.910156 17.550781 L 19.832031 20.320312 C 21.46875 20.109375 23.199219 20 25 20 C 26.800781 20 28.53125 20.109375 30.167969 20.320312 L 31.089844 17.550781 C 29.148438 17.191406 27.101562 17 25 17 Z M 16.929688 17.972656 C 14.378906 18.609375 12.058594 19.539062 10.121094 20.710938 L 11.371094 22.710938 C 13.121094 21.820312 15.320312 21.109375 17.820312 20.640625 Z M 33.070312 17.972656 L 32.179688 20.640625 C 34.679688 21.109375 36.878906 21.820312 38.628906 22.710938 L 39.878906 20.710938 C 37.941406 19.539062 35.621094 18.609375 33.070312 17.972656 Z M 1 26.402344 L 1 38 C 1 42.878906 7.589844 46.921875 17 48.390625 C 17.648438 48.5 18.320312 48.589844 19 48.667969 L 19 38.054688 C 19 37.472656 19.472656 37 20.054688 37 L 29.945312 37 C 30.527344 37 31 37.472656 31 38.054688 L 31 48.667969 C 31.679688 48.589844 32.351562 48.5 33 48.390625 C 42.410156 46.921875 49 42.878906 49 38 L 49 26.402344 C 45.109375 30.910156 35.941406 34 25 34 C 15.628906 34 7.558594 31.730469 3 28.25 C 2.640625 27.980469 2.308594 27.699219 2 27.410156 C 1.640625 27.089844 1.308594 26.75 1 26.402344 Z M 1 26.402344 "/>
</g>
</svg>
