<svg xmlns="http://www.w3.org/2000/svg"  viewBox="0 0 512 512" width="512px" height="512px"><rect width="368.33" height="368.33" x="72.44" y="72.23" fill="#767c93" rx="50" ry="50"/><rect width="368.33" height="368.33" x="71.83" y="72.38" fill="#ffbc5a" rx="50" ry="50" transform="rotate(45 256.003 256.55)"/><g data-name="&lt;编组&gt;"><path fill="#767c93" d="M232,265.31a93.56,93.56,0,0,1,3.91,27.75l-1.7,39.67s1.1,14.37-14.37,13.23c-8.82-.65-8.85-13.23-8.85-13.23l-1.53-38.12s-5.81-12.84-11.73-19.35c-11.05-12.16-21,3.31-21,3.31l-28,56.5s-5.88,11.9-16.26,9.82c-11.06-2.21-7.07-16.05-7.07-16.05L161,228.33l64.42,14.94C225.61,244.05,227.82,251.71,232,265.31Z"/><path fill="#767c93" d="M225.4,243.27,161,228.33l-29.64-6.88.08-.35s3.32-14.37,6.63-26.53,12-15.75,12-15.75,9.33-6.31,26.7-11.79c10.37-3.27,21.76.58,31.76,3.49a272.74,272.74,0,0,1,28.06,9.85c7.43,3.09,14.65,8.59,17.49,16.41,4.34,11.95,13,54.76,13.26,56.23Z"/><path fill="#767c93" d="M221.92,109.46A24.9,24.9,0,1,1,197,134.36,24.9,24.9,0,0,1,221.92,109.46Z"/></g><polygon fill="#767c93" points="391 346 259 346 277 287 303 291 327 243 360 243 391 346"/><path fill="#3f456b" d="M221,482S65,331,33,297s-11-63.74-11-63.74S19,258,43,283L234,470s9,10,23,10a27.33,27.33,0,0,0,21.25-10l191-187c24-25,21-49.74,21-49.74s21,29.74-11,63.74-188,185-188,185S278,497,256.5,497,221,482,221,482Z" opacity=".15"/><path fill="#fff" d="M291.25,30.26s156,151,188,185,11,63.74,11,63.74,3-24.74-21-49.74l-191-187s-9-10-23-10a27.33,27.33,0,0,0-21.25,10l-191,187C19,254.26,22,279,22,279S1,249.26,33,215.26s188-185,188-185,13.25-15,34.75-15S291.25,30.26,291.25,30.26Z" opacity=".2"/><path fill="#fff" d="M197,134s3-24.33,26.5-24.17S247,134,247,134s-6-11-25-11S197,134,197,134Z" opacity=".15"/><path fill="#3f456b" d="M247,135.83s-3,24.34-26.5,24.17S197,135.83,197,135.83s6,11,25,11S247,135.83,247,135.83Z" opacity=".2"/><polygon fill="#3f456b" points="161 228 155.72 243.2 230.62 260.79 225 243 161 228" opacity=".2"/><polygon fill="#3f456b" points="345.33 243 359 327 264.8 327 259 346 391 346 360 243 345.33 243" opacity=".2"/><path fill="#3f456b" d="M129.21,318.23S130,327,138,329s15.17-2.79,15.17-2.79S151,347,133,345,129.21,318.23,129.21,318.23Z" opacity=".2"/><path fill="#3f456b" d="M208.67,325.83s5.13,7.15,13,4.81,11.66-10.11,11.66-10.11,8.68,19-7.84,26.43S208.67,325.83,208.67,325.83Z" opacity=".2"/><path fill="#fff" d="M135.17,205.62S152,190,172,181a40,40,0,0,1,21-2c12,2,41,12,41,12s21,13.14,25,24.57c0,0,3.33-25.24-23.83-35.4s-42-13.65-42-13.65-9.61-2.3-28.89,5.09S137.34,189.25,135.17,205.62Z" opacity=".1"/><g><path fill="#3f456b" d="M256,501.26a54.84,54.84,0,0,1-38.89-16.08L27.37,295.44a55.14,55.14,0,0,1,0-77.78L217.11,27.92a55.05,55.05,0,0,1,77.78,0L484.63,217.66a55.05,55.05,0,0,1,0,77.78L294.89,485.18A54.84,54.84,0,0,1,256,501.26Zm-31.82-23.15a45.06,45.06,0,0,0,63.64,0L477.56,288.37a45,45,0,0,0,0-63.64L287.82,35a45,45,0,0,0-63.64,0L34.44,224.73a45.15,45.15,0,0,0,0,63.64Z"/><path fill="#3f456b" d="M221.92,164.25a29.9,29.9,0,1,1,29.9-29.89A29.93,29.93,0,0,1,221.92,164.25Zm0-49.79a19.9,19.9,0,1,0,19.9,19.9A19.92,19.92,0,0,0,221.92,114.46Z"/><path fill="#3f456b" d="M267.37,258.05a5,5,0,0,1-4.9-4c-.08-.44-8.81-43.88-13.06-55.54C247.4,193,242,188,234.7,185a268.07,268.07,0,0,0-27.53-9.67l-2.26-.66c-9.07-2.67-18.46-5.43-26.6-2.86C162,177,153,182.91,152.9,183l-.42.28-.48.2c-.2.09-6.55,3-9.12,12.44-3.25,11.92-6.55,26.19-6.59,26.33a5,5,0,1,1-9.74-2.25c0-.14,3.38-14.6,6.68-26.72,3.46-12.68,12.14-17.68,14.43-18.8,1.93-1.25,11.44-7.08,27.64-12.19,11-3.48,22.41-.14,32.43,2.81l2.22.65a272.65,272.65,0,0,1,28.58,10c5.83,2.41,16.22,8.14,20.28,19.31,4.5,12.37,13.1,55.18,13.47,57a5,5,0,0,1-3.92,5.88A4.75,4.75,0,0,1,267.37,258.05Z"/><path fill="#3f456b" d="M221.58,352c-.69,0-1.39,0-2.1-.07-10.57-.79-13.43-12.13-13.47-18.11l-1.49-38c-1.37-2.88-6-12.27-10.48-17.2-2.93-3.23-4.9-3.06-5.54-3-3.26.27-6.48,4.11-7.42,5.47l-27.8,56.2c-2.82,5.7-10.56,14.75-21.73,12.52a13.92,13.92,0,0,1-9.48-6.37c-4-6.52-1.69-15-1.42-16l.09-.28L164.29,204a5,5,0,0,1,9.43,3.33l-43.49,123c-.37,1.43-1,5.6.4,7.91a3.88,3.88,0,0,0,2.88,1.74c6.44,1.29,10.77-7.08,10.81-7.16l28.06-56.72.15-.24c.63-1,6.34-9.49,15.13-10.22,3.44-.29,8.61.56,13.78,6.24,6.38,7,12.34,20.11,12.59,20.66l.4.89L216,333.72c0,.06.27,8,4.22,8.25,3.24.24,5.59-.35,7-1.76,2.17-2.17,2-6.06,2-6.09l0-.3,1.72-41a89.63,89.63,0,0,0-3.7-26.07c-4.39-14.25-6.64-22.13-6.66-22.2a5,5,0,1,1,9.61-2.75c0,.08,2.25,7.87,6.61,22a98.42,98.42,0,0,1,4.13,29.41l-1.7,40.45c.08,1.77,0,8.62-4.92,13.57C231.15,350.43,226.88,352,221.58,352Z"/><path fill="#3f456b" d="M316,270a5.07,5.07,0,0,1-1.15-.13l-210-49.43a5,5,0,0,1,2.3-9.74l210,49.43A5,5,0,0,1,316,270Z"/><path fill="#3f456b" d="M225.38,248.2a5.17,5.17,0,0,1-1.59-.25,5,5,0,0,1-3.16-6.33l6.63-19.89a5,5,0,1,1,9.49,3.16l-6.63,19.89A5,5,0,0,1,225.38,248.2Z"/><path fill="#3f456b" d="M391,351H259a5,5,0,0,1-4.78-6.46l18-59a5,5,0,0,1,5.54-3.48l22.4,3.44,22.37-44.74A5,5,0,0,1,327,238h33a5,5,0,0,1,4.79,3.56l31,103A5,5,0,0,1,391,351ZM265.75,341H384.27l-28-93H330.09l-22.62,45.24a5,5,0,0,1-5.23,2.7l-21.72-3.34Z"/><path fill="#3f456b" d="M256,56a5,5,0,0,1-5-5V48a5,5,0,0,1,10,0v3A5,5,0,0,1,256,56Z"/><path fill="#3f456b" d="M48,261a5,5,0,0,1-5-5v-3a5,5,0,0,1,10,0v3A5,5,0,0,1,48,261Z"/><path fill="#3f456b" d="M465,261a5,5,0,0,1-5-5v-3a5,5,0,0,1,10,0v3A5,5,0,0,1,465,261Z"/><path fill="#3f456b" d="M256,470a5,5,0,0,1-5-5v-3a5,5,0,0,1,10,0v3A5,5,0,0,1,256,470Z"/><path fill="#3f456b" d="M77.44,178h-10V122.23a55.06,55.06,0,0,1,55-55h55.32v10H122.44a45.05,45.05,0,0,0-45,45Z"/><path fill="#3f456b" d="M178.32,445.57H122.44a55.06,55.06,0,0,1-55-55V334.36h10v56.21a45.05,45.05,0,0,0,45,45h55.88Z"/><path fill="#3f456b" d="M390.77,445.57H332.43v-10h58.34a45,45,0,0,0,45-45V332.75h10v57.82A55.06,55.06,0,0,1,390.77,445.57Z"/><path fill="#3f456b" d="M445.77,180.62h-10V122.23a45,45,0,0,0-45-45H334.49v-10h56.28a55.06,55.06,0,0,1,55,55Z"/></g></svg>