<?xml version='1.0' encoding='UTF-8'?>
<svg width="62mm" height="62mm" version="1.1" viewBox="0 0 62 62" xmlns="http://www.w3.org/2000/svg"><rect fill="white" x="0" y="0" width="100%" height="100%" /><path d="M2,2H4V4H2zM4,2H6V4H4zM6,2H8V4H6zM8,2H10V4H8zM10,2H12V4H10zM12,2H14V4H12zM14,2H16V4H14zM18,2H20V4H18zM20,2H22V4H20zM22,2H24V4H22zM24,2H26V4H24zM28,2H30V4H28zM32,2H34V4H32zM38,2H40V4H38zM46,2H48V4H46zM48,2H50V4H48zM50,2H52V4H50zM52,2H54V4H52zM54,2H56V4H54zM56,2H58V4H56zM58,2H60V4H58zM2,4H4V6H2zM14,4H16V6H14zM26,4H28V6H26zM28,4H30V6H28zM34,4H36V6H34zM38,4H40V6H38zM40,4H42V6H40zM46,4H48V6H46zM58,4H60V6H58zM2,6H4V8H2zM6,6H8V8H6zM8,6H10V8H8zM10,6H12V8H10zM14,6H16V8H14zM20,6H22V8H20zM22,6H24V8H22zM24,6H26V8H24zM30,6H32V8H30zM36,6H38V8H36zM38,6H40V8H38zM40,6H42V8H40zM42,6H44V8H42zM46,6H48V8H46zM50,6H52V8H50zM52,6H54V8H52zM54,6H56V8H54zM58,6H60V8H58zM2,8H4V10H2zM6,8H8V10H6zM8,8H10V10H8zM10,8H12V10H10zM14,8H16V10H14zM18,8H20V10H18zM22,8H24V10H22zM24,8H26V10H24zM28,8H30V10H28zM34,8H36V10H34zM38,8H40V10H38zM40,8H42V10H40zM46,8H48V10H46zM50,8H52V10H50zM52,8H54V10H52zM54,8H56V10H54zM58,8H60V10H58zM2,10H4V12H2zM6,10H8V12H6zM8,10H10V12H8zM10,10H12V12H10zM14,10H16V12H14zM18,10H20V12H18zM20,10H22V12H20zM22,10H24V12H22zM24,10H26V12H24zM26,10H28V12H26zM32,10H34V12H32zM38,10H40V12H38zM42,10H44V12H42zM46,10H48V12H46zM50,10H52V12H50zM52,10H54V12H52zM54,10H56V12H54zM58,10H60V12H58zM2,12H4V14H2zM14,12H16V14H14zM18,12H20V14H18zM20,12H22V14H20zM22,12H24V14H22zM24,12H26V14H24zM26,12H28V14H26zM28,12H30V14H28zM30,12H32V14H30zM34,12H36V14H34zM40,12H42V14H40zM42,12H44V14H42zM46,12H48V14H46zM58,12H60V14H58zM2,14H4V16H2zM4,14H6V16H4zM6,14H8V16H6zM8,14H10V16H8zM10,14H12V16H10zM12,14H14V16H12zM14,14H16V16H14zM18,14H20V16H18zM22,14H24V16H22zM26,14H28V16H26zM30,14H32V16H30zM34,14H36V16H34zM38,14H40V16H38zM42,14H44V16H42zM46,14H48V16H46zM48,14H50V16H48zM50,14H52V16H50zM52,14H54V16H52zM54,14H56V16H54zM56,14H58V16H56zM58,14H60V16H58zM18,16H20V18H18zM34,16H36V18H34zM36,16H38V18H36zM2,18H4V20H2zM10,18H12V20H10zM14,18H16V20H14zM16,18H18V20H16zM18,18H20V20H18zM20,18H22V20H20zM22,18H24V20H22zM26,18H28V20H26zM30,18H32V20H30zM34,18H36V20H34zM36,18H38V20H36zM40,18H42V20H40zM44,18H46V20H44zM46,18H48V20H46zM48,18H50V20H48zM50,18H52V20H50zM52,18H54V20H52zM58,18H60V20H58zM2,20H4V22H2zM4,20H6V22H4zM6,20H8V22H6zM10,20H12V22H10zM12,20H14V22H12zM16,20H18V22H16zM20,20H22V22H20zM30,20H32V22H30zM32,20H34V22H32zM34,20H36V22H34zM36,20H38V22H36zM38,20H40V22H38zM42,20H44V22H42zM46,20H48V22H46zM50,20H52V22H50zM52,20H54V22H52zM54,20H56V22H54zM56,20H58V22H56zM58,20H60V22H58zM4,22H6V24H4zM10,22H12V24H10zM12,22H14V24H12zM14,22H16V24H14zM16,22H18V24H16zM22,22H24V24H22zM24,22H26V24H24zM26,22H28V24H26zM28,22H30V24H28zM30,22H32V24H30zM32,22H34V24H32zM34,22H36V24H34zM36,22H38V24H36zM38,22H40V24H38zM48,22H50V24H48zM58,22H60V24H58zM6,24H8V26H6zM8,24H10V26H8zM12,24H14V26H12zM16,24H18V26H16zM24,24H26V26H24zM30,24H32V26H30zM32,24H34V26H32zM36,24H38V26H36zM38,24H40V26H38zM44,24H46V26H44zM48,24H50V26H48zM56,24H58V26H56zM58,24H60V26H58zM2,26H4V28H2zM6,26H8V28H6zM10,26H12V28H10zM14,26H16V28H14zM20,26H22V28H20zM24,26H26V28H24zM26,26H28V28H26zM34,26H36V28H34zM36,26H38V28H36zM40,26H42V28H40zM48,26H50V28H48zM56,26H58V28H56zM2,28H4V30H2zM4,28H6V30H4zM6,28H8V30H6zM16,28H18V30H16zM20,28H22V30H20zM22,28H24V30H22zM28,28H30V30H28zM32,28H34V30H32zM34,28H36V30H34zM36,28H38V30H36zM38,28H40V30H38zM42,28H44V30H42zM44,28H46V30H44zM46,28H48V30H46zM50,28H52V30H50zM52,28H54V30H52zM56,28H58V30H56zM58,28H60V30H58zM4,30H6V32H4zM6,30H8V32H6zM14,30H16V32H14zM16,30H18V32H16zM24,30H26V32H24zM32,30H34V32H32zM36,30H38V32H36zM44,30H46V32H44zM46,30H48V32H46zM48,30H50V32H48zM50,30H52V32H50zM54,30H56V32H54zM58,30H60V32H58zM4,32H6V34H4zM10,32H12V34H10zM16,32H18V34H16zM18,32H20V34H18zM22,32H24V34H22zM24,32H26V34H24zM26,32H28V34H26zM30,32H32V34H30zM32,32H34V34H32zM36,32H38V34H36zM38,32H40V34H38zM44,32H46V34H44zM46,32H48V34H46zM50,32H52V34H50zM56,32H58V34H56zM58,32H60V34H58zM4,34H6V36H4zM8,34H10V36H8zM12,34H14V36H12zM14,34H16V36H14zM18,34H20V36H18zM20,34H22V36H20zM22,34H24V36H22zM26,34H28V36H26zM36,34H38V36H36zM40,34H42V36H40zM52,34H54V36H52zM56,34H58V36H56zM2,36H4V38H2zM8,36H10V38H8zM16,36H18V38H16zM20,36H22V38H20zM28,36H30V38H28zM32,36H34V38H32zM34,36H36V38H34zM36,36H38V38H36zM38,36H40V38H38zM42,36H44V38H42zM46,36H48V38H46zM50,36H52V38H50zM56,36H58V38H56zM58,36H60V38H58zM10,38H12V40H10zM12,38H14V40H12zM14,38H16V40H14zM16,38H18V40H16zM20,38H22V40H20zM22,38H24V40H22zM24,38H26V40H24zM26,38H28V40H26zM28,38H30V40H28zM32,38H34V40H32zM38,38H40V40H38zM50,38H52V40H50zM52,38H54V40H52zM54,38H56V40H54zM58,38H60V40H58zM8,40H10V42H8zM12,40H14V42H12zM18,40H20V42H18zM22,40H24V42H22zM34,40H36V42H34zM36,40H38V42H36zM44,40H46V42H44zM56,40H58V42H56zM58,40H60V42H58zM2,42H4V44H2zM4,42H6V44H4zM6,42H8V44H6zM14,42H16V44H14zM20,42H22V44H20zM22,42H24V44H22zM30,42H32V44H30zM32,42H34V44H32zM36,42H38V44H36zM38,42H40V44H38zM42,42H44V44H42zM44,42H46V44H44zM46,42H48V44H46zM48,42H50V44H48zM50,42H52V44H50zM52,42H54V44H52zM58,42H60V44H58zM18,44H20V46H18zM20,44H22V46H20zM30,44H32V46H30zM32,44H34V46H32zM34,44H36V46H34zM36,44H38V46H36zM38,44H40V46H38zM42,44H44V46H42zM50,44H52V46H50zM58,44H60V46H58zM2,46H4V48H2zM4,46H6V48H4zM6,46H8V48H6zM8,46H10V48H8zM10,46H12V48H10zM12,46H14V48H12zM14,46H16V48H14zM18,46H20V48H18zM20,46H22V48H20zM22,46H24V48H22zM24,46H26V48H24zM26,46H28V48H26zM28,46H30V48H28zM30,46H32V48H30zM32,46H34V48H32zM38,46H40V48H38zM40,46H42V48H40zM42,46H44V48H42zM46,46H48V48H46zM50,46H52V48H50zM52,46H54V48H52zM54,46H56V48H54zM58,46H60V48H58zM2,48H4V50H2zM14,48H16V50H14zM20,48H22V50H20zM22,48H24V50H22zM24,48H26V50H24zM26,48H28V50H26zM30,48H32V50H30zM34,48H36V50H34zM36,48H38V50H36zM38,48H40V50H38zM42,48H44V50H42zM50,48H52V50H50zM56,48H58V50H56zM2,50H4V52H2zM6,50H8V52H6zM8,50H10V52H8zM10,50H12V52H10zM14,50H16V52H14zM18,50H20V52H18zM22,50H24V52H22zM24,50H26V52H24zM26,50H28V52H26zM28,50H30V52H28zM30,50H32V52H30zM36,50H38V52H36zM40,50H42V52H40zM42,50H44V52H42zM44,50H46V52H44zM46,50H48V52H46zM48,50H50V52H48zM50,50H52V52H50zM58,50H60V52H58zM2,52H4V54H2zM6,52H8V54H6zM8,52H10V54H8zM10,52H12V54H10zM14,52H16V54H14zM30,52H32V54H30zM32,52H34V54H32zM34,52H36V54H34zM40,52H42V54H40zM48,52H50V54H48zM52,52H54V54H52zM54,52H56V54H54zM58,52H60V54H58zM2,54H4V56H2zM6,54H8V56H6zM8,54H10V56H8zM10,54H12V56H10zM14,54H16V56H14zM28,54H30V56H28zM32,54H34V56H32zM36,54H38V56H36zM38,54H40V56H38zM42,54H44V56H42zM48,54H50V56H48zM52,54H54V56H52zM56,54H58V56H56zM58,54H60V56H58zM2,56H4V58H2zM14,56H16V58H14zM20,56H22V58H20zM22,56H24V58H22zM32,56H34V58H32zM34,56H36V58H34zM36,56H38V58H36zM40,56H42V58H40zM42,56H44V58H42zM44,56H46V58H44zM46,56H48V58H46zM48,56H50V58H48zM50,56H52V58H50zM56,56H58V58H56zM58,56H60V58H58zM2,58H4V60H2zM4,58H6V60H4zM6,58H8V60H6zM8,58H10V60H8zM10,58H12V60H10zM12,58H14V60H12zM14,58H16V60H14zM18,58H20V60H18zM20,58H22V60H20zM24,58H26V60H24zM28,58H30V60H28zM30,58H32V60H30zM32,58H34V60H32zM36,58H38V60H36zM40,58H42V60H40zM42,58H44V60H42zM44,58H46V60H44zM50,58H52V60H50zM56,58H58V60H56z" id="qr-path" fill="#000000" fill-opacity="1" fill-rule="nonzero" stroke="none" /></svg>